<?xml version="1.0" encoding="UTF-8" standalone="no"?>
<!-- Created with Inkscape (http://www.inkscape.org/) -->

<svg
   xmlns:dc="http://purl.org/dc/elements/1.1/"
   xmlns:cc="http://creativecommons.org/ns#"
   xmlns:rdf="http://www.w3.org/1999/02/22-rdf-syntax-ns#"
   xmlns:svg="http://www.w3.org/2000/svg"
   xmlns="http://www.w3.org/2000/svg"
   xmlns:sodipodi="http://sodipodi.sourceforge.net/DTD/sodipodi-0.dtd"
   xmlns:inkscape="http://www.inkscape.org/namespaces/inkscape"
   width="36.191288"
   height="91.820412"
   id="svg2"
   version="1.1"
   inkscape:version="0.48.4 r9939"
   sodipodi:docname="dc25.svg">
  <defs
     id="defs4" />
  <sodipodi:namedview
     id="base"
     pagecolor="#ffffff"
     bordercolor="#666666"
     borderopacity="1.0"
     inkscape:pageopacity="0.0"
     inkscape:pageshadow="2"
     inkscape:zoom="0.49497475"
     inkscape:cx="-304.35944"
     inkscape:cy="141.00658"
     inkscape:document-units="px"
     inkscape:current-layer="layer1"
     showgrid="false"
     fit-margin-top="0"
     fit-margin-left="0"
     fit-margin-right="0"
     fit-margin-bottom="0"
     inkscape:window-width="1538"
     inkscape:window-height="878"
     inkscape:window-x="-8"
     inkscape:window-y="-8"
     inkscape:window-maximized="1" />
  <metadata
     id="metadata7">
    <rdf:RDF>
      <cc:Work
         rdf:about="">
        <dc:format>image/svg+xml</dc:format>
        <dc:type
           rdf:resource="http://purl.org/dc/dcmitype/StillImage" />
        <dc:title />
      </cc:Work>
    </rdf:RDF>
  </metadata>
  <g
     inkscape:label="Layer 1"
     inkscape:groupmode="layer"
     id="layer1"
     transform="translate(-308.93576,-507.43662)">
    <g
       transform="matrix(0.29842358,0,0,0.29842358,215.38059,394.4774)"
       id="layer1-1">
      <g
         transform="matrix(1.7891716,0,0,1.7891716,-335.63329,-259.87289)"
         id="g3057">
        <g
           transform="matrix(2.0502189,0,0,2.0502189,-208.49246,-560.11053)"
           id="g3059">
          <path
             d="m 279.26809,487.31113 7.72994,0 c 2.44151,-0.009 4.26663,-0.66823 5.47537,-1.97691 1.20872,-1.30868 1.81215,-3.21155 1.81032,-5.70861 l 0,-15.72642 c 0.002,-2.49703 -0.6016,-4.39989 -1.81032,-5.70861 -1.20874,-1.30865 -3.03386,-1.96762 -5.47537,-1.9769 l -7.72994,0 z m 7.64109,-26.65496 c 0.78391,-0.0129 1.3929,0.21289 1.82698,0.67748 0.43405,0.46463 0.65433,1.24577 0.66082,2.34341 l 0,16.17068 c -0.006,1.09767 -0.22677,1.87881 -0.66082,2.34341 -0.43408,0.46462 -1.04307,0.69045 -1.82698,0.67748 l -2.75434,0 0,-22.21246 z"
             id="path3061"
             style="font-size:44.42550278px;font-style:normal;font-variant:normal;font-weight:normal;font-stretch:normal;text-align:center;line-height:125%;letter-spacing:0px;word-spacing:0px;text-anchor:middle;fill:#ffffff;fill-opacity:1;stroke:none;font-family:Bebas Neue;-inkscape-font-specification:Bebas Neue"
             inkscape:connector-curvature="0" />
          <path
             d="m 306.95408,475.71622 0,4.44249 c -0.008,1.09767 -0.23602,1.87881 -0.68303,2.34342 -0.44704,0.46461 -1.06343,0.69044 -1.84919,0.67748 -0.78577,0.013 -1.40217,-0.21287 -1.84919,-0.67748 -0.44703,-0.46461 -0.67471,-1.24575 -0.68303,-2.34342 l 0,-16.79262 c 0.008,-1.09949 0.236,-1.88804 0.68303,-2.36563 0.44702,-0.47754 1.06342,-0.71077 1.84919,-0.69969 0.78576,-0.0111 1.40215,0.22215 1.84919,0.69969 0.44701,0.4776 0.67469,1.26614 0.68303,2.36563 l 0,3.33187 4.6202,0 0,-3.0209 c -0.004,-2.50257 -0.61827,-4.42765 -1.84364,-5.77524 -1.2254,-1.34752 -3.03942,-2.0287 -5.44205,-2.04354 -2.40266,0.0148 -4.21667,0.69602 -5.44206,2.04354 -1.22539,1.34759 -1.83993,3.27267 -1.84363,5.77524 l 0,16.17068 c 0.004,2.50261 0.61824,4.42769 1.84363,5.77524 1.22538,1.34756 3.0394,2.02874 5.44206,2.04355 2.40263,-0.0148 4.21665,-0.69599 5.44205,-2.04355 1.22537,-1.34755 1.83992,-3.27263 1.84364,-5.77524 l 0,-4.13152 z"
             id="path3063"
             style="font-size:44.42550278px;font-style:normal;font-variant:normal;font-weight:normal;font-stretch:normal;text-align:center;line-height:125%;letter-spacing:0px;word-spacing:0px;text-anchor:middle;fill:#ffffff;fill-opacity:1;stroke:none;font-family:Bebas Neue;-inkscape-font-specification:Bebas Neue"
             inkscape:connector-curvature="0" />
        </g>
        <g
           transform="matrix(2.0502189,0,0,2.0502189,-208.49246,-602.57939)"
           id="g3065">
          <path
             d="m 288.99611,519.38664 c 0.0333,1.61598 -0.29988,3.15975 -0.99956,4.6313 -0.6997,1.47159 -1.96581,3.17085 -3.79833,5.09776 -1.79736,1.86771 -3.06718,3.56326 -3.80944,5.08666 -0.74227,1.52341 -1.10137,3.13011 -1.0773,4.8201 l 0,3.82055 14.12713,0 0,-4.4425 -9.24039,0 c -0.037,-0.22212 -0.0518,-0.44424 -0.0444,-0.66637 -0.0268,-0.78391 0.22674,-1.63724 0.76077,-2.55999 0.53402,-0.92273 1.50952,-2.14257 2.92649,-3.6595 2.2342,-2.37302 3.80758,-4.51282 4.72015,-6.41941 0.91255,-1.90655 1.3531,-3.86864 1.32165,-5.8863 -0.004,-2.50258 -0.61827,-4.42765 -1.84364,-5.77524 -1.2254,-1.34752 -3.03942,-2.02871 -5.44205,-2.04355 -2.40266,0.0148 -4.21667,0.69603 -5.44206,2.04355 -1.22539,1.34759 -1.83993,3.27266 -1.84363,5.77524 l 0,3.0209 4.62019,0 0,-3.33187 c 0.008,-1.0995 0.236,-1.88804 0.68303,-2.36563 0.44702,-0.47754 1.06342,-0.71077 1.84919,-0.69969 0.78576,-0.0268 1.40215,0.21567 1.84919,0.72746 0.44701,0.51183 0.67469,1.45401 0.68303,2.82653 z"
             id="path3067"
             style="font-size:44.42550278px;font-style:normal;font-variant:normal;font-weight:normal;font-stretch:normal;text-align:center;line-height:125%;letter-spacing:0px;word-spacing:0px;text-anchor:middle;fill:#ffffff;fill-opacity:1;stroke:none;font-family:Bebas Neue;-inkscape-font-specification:Bebas Neue"
             inkscape:connector-curvature="0" />
          <path
             d="m 296.70337,532.80297 0,2.57665 c 0.004,2.50261 0.61825,4.42768 1.84363,5.77524 1.22539,1.34755 3.0394,2.02874 5.44206,2.04354 2.40264,-0.0148 4.21665,-0.69599 5.44205,-2.04354 1.22537,-1.34756 1.83992,-3.27263 1.84364,-5.77524 l 0,-6.93029 c -9.4e-4,-2.29805 -0.45445,-4.05469 -1.36052,-5.26991 -0.90609,-1.21519 -2.2592,-1.82788 -4.05932,-1.83808 -0.97551,0.003 -1.81218,0.19716 -2.51001,0.58308 -0.69785,0.38596 -1.26797,0.94682 -1.71036,1.68259 l -0.0889,0 0.39982,-7.41896 8.52959,0 0,-4.4425 -12.88323,0 -0.8885,18.03653 4.62019,0 0,-0.93293 c 0.008,-1.0995 0.236,-1.88804 0.68304,-2.36563 0.44702,-0.47755 1.06341,-0.71078 1.84918,-0.69969 0.78576,-0.0111 1.40216,0.22214 1.84919,0.6997 0.44702,0.47758 0.67469,1.26612 0.68304,2.36562 l 0,6.84144 c -0.008,1.09767 -0.23602,1.87881 -0.68304,2.34342 -0.44703,0.46461 -1.06343,0.69044 -1.84919,0.67748 -0.78577,0.013 -1.40217,-0.21287 -1.84918,-0.67748 -0.44704,-0.46461 -0.67471,-1.24575 -0.68304,-2.34342 l 0,-2.88762 z"
             id="path3069"
             style="font-size:44.42550278px;font-style:normal;font-variant:normal;font-weight:normal;font-stretch:normal;text-align:center;line-height:125%;letter-spacing:0px;word-spacing:0px;text-anchor:middle;fill:#ffffff;fill-opacity:1;stroke:none;font-family:Bebas Neue;-inkscape-font-specification:Bebas Neue"
             inkscape:connector-curvature="0" />
        </g>
        <path
           d="m 397.21729,356.80906 -3.9375,5.625 -30.46875,0 0,5 30.75,0 3.59375,5.625 3.9375,-5.625 28.53125,0 0,-5 -28.8125,0 -3.59375,-5.625 z"
           id="path3071"
           style="font-size:medium;font-style:normal;font-variant:normal;font-weight:normal;font-stretch:normal;text-indent:0;text-align:start;text-decoration:none;line-height:normal;letter-spacing:normal;word-spacing:normal;text-transform:none;direction:ltr;block-progression:tb;writing-mode:lr-tb;text-anchor:start;baseline-shift:baseline;color:#000000;fill:#ffffff;fill-opacity:1;stroke:none;stroke-width:5;marker:none;visibility:visible;display:inline;overflow:visible;enable-background:accumulate;font-family:Sans;-inkscape-font-specification:Sans"
           inkscape:connector-curvature="0" />
        <path
           d="m 363.7843,520.65462 66.80268,0"
           id="path3073"
           style="fill:none;stroke:#ffffff;stroke-width:5;stroke-linecap:butt;stroke-linejoin:miter;stroke-miterlimit:12;stroke-opacity:1;stroke-dasharray:none"
           inkscape:connector-curvature="0" />
        <path
           d="m 397.21729,512.52962 -3.9375,5.625 -30.46875,0 0,5 30.75,0 3.59375,5.625 3.9375,-5.625 28.53125,0 0,-5 -28.8125,0 -3.59375,-5.625 z"
           id="path3075"
           style="font-size:medium;font-style:normal;font-variant:normal;font-weight:normal;font-stretch:normal;text-indent:0;text-align:start;text-decoration:none;line-height:normal;letter-spacing:normal;word-spacing:normal;text-transform:none;direction:ltr;block-progression:tb;writing-mode:lr-tb;text-anchor:start;baseline-shift:baseline;color:#000000;fill:#ffffff;fill-opacity:1;stroke:none;stroke-width:5;marker:none;visibility:visible;display:inline;overflow:visible;enable-background:accumulate;font-family:Sans;-inkscape-font-specification:Sans"
           inkscape:connector-curvature="0" />
      </g>
    </g>
  </g>
</svg>
