<?xml version="1.0" encoding="UTF-8" standalone="no"?>
<!-- Created with Inkscape (http://www.inkscape.org/) -->

<svg
   xmlns:dc="http://purl.org/dc/elements/1.1/"
   xmlns:cc="http://creativecommons.org/ns#"
   xmlns:rdf="http://www.w3.org/1999/02/22-rdf-syntax-ns#"
   xmlns:svg="http://www.w3.org/2000/svg"
   xmlns="http://www.w3.org/2000/svg"
   xmlns:sodipodi="http://sodipodi.sourceforge.net/DTD/sodipodi-0.dtd"
   xmlns:inkscape="http://www.inkscape.org/namespaces/inkscape"
   width="145.06558"
   height="64.19429"
   id="svg2"
   version="1.1"
   inkscape:version="0.48.4 r9939"
   sodipodi:docname="khela.svg">
  <defs
     id="defs4" />
  <sodipodi:namedview
     id="base"
     pagecolor="#ffffff"
     bordercolor="#666666"
     borderopacity="1.0"
     inkscape:pageopacity="0.0"
     inkscape:pageshadow="2"
     inkscape:zoom="1.4"
     inkscape:cx="94.539266"
     inkscape:cy="83.943837"
     inkscape:document-units="px"
     inkscape:current-layer="layer1"
     showgrid="false"
     fit-margin-top="0"
     fit-margin-left="0"
     fit-margin-right="0"
     fit-margin-bottom="0"
     inkscape:window-width="1538"
     inkscape:window-height="878"
     inkscape:window-x="-8"
     inkscape:window-y="-8"
     inkscape:window-maximized="1" />
  <metadata
     id="metadata7">
    <rdf:RDF>
      <cc:Work
         rdf:about="">
        <dc:format>image/svg+xml</dc:format>
        <dc:type
           rdf:resource="http://purl.org/dc/dcmitype/StillImage" />
        <dc:title />
      </cc:Work>
    </rdf:RDF>
  </metadata>
  <g
     inkscape:label="Layer 1"
     inkscape:groupmode="layer"
     id="layer1"
     transform="translate(-254.75663,-521.24968)">
    <path
       inkscape:connector-curvature="0"
       id="path3856"
       style="font-size:36.52222061px;font-style:normal;font-variant:normal;font-weight:normal;font-stretch:normal;line-height:125%;letter-spacing:0px;word-spacing:0px;fill:#ebebeb;fill-opacity:1;stroke:none;font-family:Tw Cen MT;-inkscape-font-specification:Tw Cen MT"
       d="m 255.02803,566.8459 2.39976,0 0,17.77489 -2.39976,0 z" />
    <path
       inkscape:connector-curvature="0"
       id="path3858"
       style="font-size:36.52222061px;font-style:normal;font-variant:normal;font-weight:normal;font-stretch:normal;line-height:125%;letter-spacing:0px;word-spacing:0px;fill:#ebebeb;fill-opacity:1;stroke:none;font-family:Tw Cen MT;-inkscape-font-specification:Tw Cen MT"
       d="m 261.16694,566.13436 13.1428,13.51949 0,-12.80795 2.42766,0 0,18.59807 -13.14282,-13.44977 0,12.62659 -2.42764,0 z" />
    <path
       inkscape:connector-curvature="0"
       id="path3860"
       style="font-size:36.52222061px;font-style:normal;font-variant:normal;font-weight:normal;font-stretch:normal;line-height:125%;letter-spacing:0px;word-spacing:0px;fill:#ebebeb;fill-opacity:1;stroke:none;font-family:Tw Cen MT;-inkscape-font-specification:Tw Cen MT"
       d="m 279.30456,566.8459 10.86863,0 0,2.42765 -4.24141,0 0,15.34724 -2.39973,0 0,-15.34724 -4.22749,0 z" />
    <path
       inkscape:connector-curvature="0"
       id="path3862"
       style="font-size:36.52222061px;font-style:normal;font-variant:normal;font-weight:normal;font-stretch:normal;line-height:125%;letter-spacing:0px;word-spacing:0px;fill:#ebebeb;fill-opacity:1;stroke:none;font-family:Tw Cen MT;-inkscape-font-specification:Tw Cen MT"
       d="m 292.69851,566.8459 9.85015,0 0,2.42765 -7.45039,0 0,4.43674 7.45039,0 0,2.39976 -7.45039,0 0,6.11099 7.45039,0 0,2.39975 -9.85015,0 z" />
    <path
       inkscape:connector-curvature="0"
       id="path3864"
       style="font-size:36.52222061px;font-style:normal;font-variant:normal;font-weight:normal;font-stretch:normal;line-height:125%;letter-spacing:0px;word-spacing:0px;fill:#ebebeb;fill-opacity:1;stroke:none;font-family:Tw Cen MT;-inkscape-font-specification:Tw Cen MT"
       d="m 305.77157,566.8459 3.85077,0 c 1.91607,10e-6 3.47637,0.47671 4.6809,1.43009 1.20451,0.9534 1.80676,2.17419 1.80678,3.66241 -2e-5,1.19058 -0.39066,2.24163 -1.17197,3.15314 -0.78132,0.91155 -1.9998,1.55335 -3.65544,1.9254 l 5.17621,7.60385 -2.77645,0 -4.93902,-7.31088 -0.54413,0 0,7.31088 -2.42765,0 z m 2.42765,2.1486 0,6.19471 c 3.58103,0.0744 5.37153,-0.96267 5.37153,-3.1113 0,-0.7534 -0.20928,-1.36961 -0.62784,-1.84865 -0.41856,-0.479 -0.97664,-0.80454 -1.67423,-0.97664 -0.69762,-0.17201 -1.72077,-0.2581 -3.06946,-0.25812 z" />
    <path
       inkscape:connector-curvature="0"
       id="path3866"
       style="font-size:36.52222061px;font-style:normal;font-variant:normal;font-weight:normal;font-stretch:normal;line-height:125%;letter-spacing:0px;word-spacing:0px;fill:#ebebeb;fill-opacity:1;stroke:none;font-family:Tw Cen MT;-inkscape-font-specification:Tw Cen MT"
       d="m 326.30896,566.16226 8.39913,18.45853 -2.53929,0 -2.07883,-4.54836 -7.54806,0 -2.02304,4.54836 -2.52532,0 z m 0,5.56684 -2.86016,6.32027 5.72033,0 z" />
    <path
       inkscape:connector-curvature="0"
       id="path3868"
       style="font-size:36.52222061px;font-style:normal;font-variant:normal;font-weight:normal;font-stretch:normal;line-height:125%;letter-spacing:0px;word-spacing:0px;fill:#ebebeb;fill-opacity:1;stroke:none;font-family:Tw Cen MT;-inkscape-font-specification:Tw Cen MT"
       d="m 351.29705,567.44584 0,2.74855 c -1.91611,-0.93941 -3.67871,-1.40913 -5.28784,-1.40915 -2.06488,2e-5 -3.80423,0.66738 -5.21805,2.00212 -1.41381,1.33473 -2.1207,2.97411 -2.1207,4.91808 0,1.98119 0.72317,3.63451 2.16955,4.95994 1.44635,1.32545 3.25778,1.98817 5.4343,1.98817 1.58123,0 3.25545,-0.49762 5.02274,-1.49287 l 0,2.77645 c -1.60916,0.85574 -3.35315,1.28359 -5.23202,1.28359 -2.75321,0 -5.10643,-0.93246 -7.05973,-2.79738 -1.95327,-1.86491 -2.92993,-4.11351 -2.92993,-6.7458 0,-2.58576 0.96038,-4.79949 2.88111,-6.64117 1.92071,-1.84166 4.23442,-2.76248 6.94114,-2.7625 1.73933,2e-5 3.53914,0.39066 5.39943,1.17197 z" />
    <path
       inkscape:connector-curvature="0"
       id="path3870"
       style="font-size:36.52222061px;font-style:normal;font-variant:normal;font-weight:normal;font-stretch:normal;line-height:125%;letter-spacing:0px;word-spacing:0px;fill:#ebebeb;fill-opacity:1;stroke:none;font-family:Tw Cen MT;-inkscape-font-specification:Tw Cen MT"
       d="m 353.08289,566.8459 10.86865,0 0,2.42765 -4.24141,0 0,15.34724 -2.39975,0 0,-15.34724 -4.22749,0 z" />
    <path
       inkscape:connector-curvature="0"
       id="path3872"
       style="font-size:36.52222061px;font-style:normal;font-variant:normal;font-weight:normal;font-stretch:normal;line-height:125%;letter-spacing:0px;word-spacing:0px;fill:#ebebeb;fill-opacity:1;stroke:none;font-family:Tw Cen MT;-inkscape-font-specification:Tw Cen MT"
       d="m 366.6443,566.8459 2.39973,0 0,17.77489 -2.39973,0 z" />
    <path
       inkscape:connector-curvature="0"
       id="path3874"
       style="font-size:36.52222061px;font-style:normal;font-variant:normal;font-weight:normal;font-stretch:normal;line-height:125%;letter-spacing:0px;word-spacing:0px;fill:#ebebeb;fill-opacity:1;stroke:none;font-family:Tw Cen MT;-inkscape-font-specification:Tw Cen MT"
       d="m 371.44378,566.87379 2.56717,0 5.56687,12.5708 5.60871,-12.5708 2.59508,0 -8.23171,18.34693 z" />
    <path
       inkscape:connector-curvature="0"
       id="path3876"
       style="font-size:36.52222061px;font-style:normal;font-variant:normal;font-weight:normal;font-stretch:normal;line-height:125%;letter-spacing:0px;word-spacing:0px;fill:#ebebeb;fill-opacity:1;stroke:none;font-family:Tw Cen MT;-inkscape-font-specification:Tw Cen MT"
       d="m 389.97207,566.8459 9.85014,0 0,2.42765 -7.45039,0 0,4.43674 7.45039,0 0,2.39976 -7.45039,0 0,6.11099 7.45039,0 0,2.39975 -9.85014,0 z" />
    <path
       d="m 286.50206,529.15739 c -0.71312,4e-5 -1.40076,0.0891 -2.06287,0.26741 -0.66219,0.17829 -1.33072,0.47121 -2.00558,0.87866 -0.67492,0.40751 -1.38803,0.92323 -2.13928,1.54713 -0.75133,0.624 -1.5854,1.3944 -2.5022,2.3112 -0.99327,0.99327 -2.03744,2.08838 -3.13253,3.28533 -1.09513,1.19701 -2.2539,2.48314 -3.47633,3.85835 1.62991,3.15802 3.19616,6.06133 4.69878,8.70994 1.50257,2.64865 2.97333,4.92801 4.41228,6.83806 1.43889,1.9101 2.88418,3.39358 4.33586,4.45048 1.45163,1.05691 2.94147,1.58536 4.46956,1.58536 l 0.45843,0 0,2.4831 c -0.86594,0.2292 -1.74456,0.4011 -2.63589,0.51572 -0.89141,0.11461 -1.92285,0.17182 -3.09433,0.17182 -1.27341,0 -2.43856,-0.13362 -3.49543,-0.40113 -1.05694,-0.26741 -2.05017,-0.70672 -2.97971,-1.31797 -0.9296,-0.6112 -1.82734,-1.40707 -2.69322,-2.38756 -0.86593,-0.98052 -1.75091,-2.17749 -2.655,-3.59097 -0.90413,-1.41343 -1.85916,-3.06247 -2.8651,-4.94707 -1.00601,-1.88459 -2.10748,-4.03662 -3.30443,-6.45606 -0.20376,0.20377 -0.4457,0.47116 -0.72584,0.80223 -0.28015,0.3311 -0.57303,0.67492 -0.87862,1.03145 -0.30564,0.35655 -0.59215,0.68764 -0.85954,0.99323 -0.26743,0.30564 -0.47753,0.54758 -0.63033,0.72582 l 0,15.1278 -7.98411,0 0,-39.11832 7.98411,0 0,18.33671 c 0.76401,-0.89135 1.69358,-1.99281 2.78871,-3.30443 1.09509,-1.31156 2.21567,-2.64224 3.36174,-3.99205 1.14603,-1.34976 2.24749,-2.6295 3.30443,-3.83925 1.05687,-1.20968 1.92914,-2.18381 2.61679,-2.92242 0.91681,-0.96773 1.75087,-1.73812 2.5022,-2.31118 0.75127,-0.57299 1.48983,-1.01232 2.21569,-1.31795 0.7258,-0.30558 1.48346,-0.50294 2.27298,-0.59213 0.78947,-0.0891 1.68084,-0.13361 2.6741,-0.13381 0.43292,6e-5 0.9168,0.0255 1.45166,0.0764 0.5348,0.0509 0.90407,0.11461 1.10784,0.19102 l 0,2.44489 z"
       style="font-size:100px;font-style:normal;font-variant:normal;font-weight:bold;font-stretch:normal;line-height:125%;letter-spacing:0px;word-spacing:0px;fill:#2aa22b;fill-opacity:1;stroke:none;font-family:Sakkal Majalla;-inkscape-font-specification:Sakkal Majalla Bold"
       id="path3857"
       inkscape:connector-curvature="0" />
    <path
       d="m 301.01863,542.56611 c 0.5348,-0.33104 1.18423,-0.7067 1.94828,-1.12694 0.764,-0.42019 1.5917,-0.81493 2.4831,-1.18424 0.89135,-0.36925 1.81454,-0.68123 2.76961,-0.93594 0.955,-0.25464 1.89095,-0.38198 2.80781,-0.382 1.04413,2e-5 2.02465,0.15928 2.94151,0.47751 0.9168,0.31837 1.71903,0.80225 2.40669,1.45166 0.6876,0.64943 1.22878,1.45166 1.62356,2.40669 0.39472,0.95505 0.59209,2.08199 0.59213,3.38082 l 0,18.98615 -7.83132,0 0,-17.53449 c -2e-5,-1.5535 -0.26106,-2.69955 -0.78313,-3.43812 -0.5221,-0.73854 -1.40711,-1.10783 -2.65499,-1.10785 -0.45844,2e-5 -0.95507,0.0574 -1.48987,0.17182 -0.53482,0.11462 -1.08238,0.28017 -1.64267,0.49662 -0.56029,0.21651 -1.11421,0.45845 -1.66176,0.72584 -0.54756,0.26741 -1.0378,0.55394 -1.47075,0.85952 l 0,19.82658 -7.83131,0 0,-42.86206 7.83131,-1.48987 0,16.27384 c -2e-5,0.45843 -0.006,0.97417 -0.0196,1.54716 -0.0118,0.57304 -0.0317,1.11423 -0.0572,1.62356 -0.0255,0.61125 -0.0382,1.22247 -0.0382,1.83366 z"
       style="font-size:100px;font-style:normal;font-variant:normal;font-weight:bold;font-stretch:normal;line-height:125%;letter-spacing:0px;word-spacing:0px;fill:#2aa22b;fill-opacity:1;stroke:none;font-family:Sakkal Majalla;-inkscape-font-specification:Sakkal Majalla Bold"
       id="path3859"
       inkscape:connector-curvature="0" />
    <path
       d="m 338.7999,538.93699 c 1.3243,2e-5 2.60404,0.17828 3.83925,0.53482 1.23515,0.35657 2.36847,0.95504 3.39992,1.79546 1.03142,0.84045 1.92916,1.96103 2.69322,3.36173 0.76399,1.40075 1.33702,3.14527 1.71906,5.23361 l 0,0.3438 c -0.2547,0.30563 -0.58578,0.58578 -0.99323,0.84045 -0.40752,0.25468 -0.93597,0.47754 -1.58536,0.66852 -0.64945,0.19102 -1.44534,0.35655 -2.38761,0.49661 -0.94233,0.14009 -2.07562,0.26107 -3.39994,0.36292 l -8.67173,0.61121 0,1.10787 c 0,1.0187 0.14008,1.96101 0.42023,2.82689 0.28012,0.86591 0.70035,1.61085 1.26064,2.23479 0.56029,0.62397 1.26701,1.11421 2.12019,1.47077 0.85315,0.35653 1.84002,0.53482 2.96062,0.5348 0.9168,2e-5 1.87821,-0.0891 2.8842,-0.26741 1.00595,-0.17829 1.96736,-0.39474 2.8842,-0.64941 0.91683,-0.25468 1.75089,-0.51572 2.5022,-0.78313 0.75127,-0.26741 1.33067,-0.50299 1.73818,-0.70672 l 0.64941,1.87187 c -0.84045,0.61121 -1.77638,1.2288 -2.80779,1.85277 -1.03146,0.62396 -2.13932,1.19696 -3.32354,1.71905 -1.18427,0.5221 -2.43854,0.94231 -3.76284,1.26066 -1.32433,0.31835 -2.68685,0.47751 -4.08756,0.47751 -1.65541,0 -3.18983,-0.2292 -4.60327,-0.68761 -1.41348,-0.45844 -2.63592,-1.19699 -3.66735,-2.21569 -1.03144,-1.0187 -1.8464,-2.34939 -2.4449,-3.99207 -0.59849,-1.64264 -0.89774,-3.63549 -0.89774,-5.97853 0,-2.62316 0.34382,-4.85156 1.03146,-6.68525 0.68762,-1.83366 1.64264,-3.31078 2.8651,-4.43137 1.22244,-1.12056 2.66136,-1.93553 4.31676,-2.4449 1.6554,-0.50933 3.43813,-0.764 5.34822,-0.76402 z m -3.70555,4.43135 c -0.22923,0.15282 -0.43933,0.46482 -0.63033,0.93595 -0.19102,0.47116 -0.35656,1.01872 -0.4966,1.64266 -0.14008,0.62396 -0.25469,1.2925 -0.34382,2.00559 -0.0891,0.7131 -0.13362,1.38798 -0.13362,2.02466 l 8.63353,-0.382 c -0.10188,-0.76403 -0.24831,-1.55352 -0.43931,-2.36851 -0.19102,-0.81494 -0.45206,-1.56623 -0.78312,-2.25387 -0.33111,-0.68762 -0.75132,-1.25427 -1.26065,-1.69997 -0.50937,-0.44566 -1.12059,-0.66849 -1.83368,-0.66853 -0.4839,4e-5 -0.96142,0.0574 -1.43256,0.17201 -0.47115,0.11462 -0.89774,0.312 -1.27975,0.59211 z"
       style="font-size:100px;font-style:normal;font-variant:normal;font-weight:bold;font-stretch:normal;line-height:125%;letter-spacing:0px;word-spacing:0px;fill:#2aa22b;fill-opacity:1;stroke:none;font-family:Sakkal Majalla;-inkscape-font-specification:Sakkal Majalla Bold"
       id="path3861"
       inkscape:connector-curvature="0" />
    <path
       d="m 365.23532,565.63982 -7.83131,0 0,-42.86206 7.83131,-1.52808 z"
       style="font-size:100px;font-style:normal;font-variant:normal;font-weight:bold;font-stretch:normal;line-height:125%;letter-spacing:0px;word-spacing:0px;fill:#2aa22b;fill-opacity:1;stroke:none;font-family:Sakkal Majalla;-inkscape-font-specification:Sakkal Majalla Bold"
       id="path3863"
       inkscape:connector-curvature="0" />
    <path
       d="m 396.90435,561.78147 c 0.6876,10e-6 1.59171,-0.15282 2.71231,-0.45844 l 0,1.7573 c -0.40752,0.382 -0.8914,0.75129 -1.45167,1.10782 -0.56031,0.35656 -1.1588,0.66854 -1.79546,0.93595 -0.63672,0.26741 -1.29886,0.47751 -1.98648,0.63033 -0.68764,0.15282 -1.36254,0.22921 -2.02467,0.22921 -0.71312,0 -1.32435,-0.0954 -1.83368,-0.28654 -0.50937,-0.19102 -0.94868,-0.44567 -1.31795,-0.764 -0.36929,-0.31835 -0.68129,-0.66854 -0.93593,-1.05056 -0.25469,-0.382 -0.47118,-0.76402 -0.64943,-1.14605 -0.66219,0.43296 -1.3116,0.85319 -1.94828,1.26066 -0.63669,0.4075 -1.30523,0.7704 -2.00556,1.08875 -0.70039,0.31834 -1.43895,0.57302 -2.21569,0.76402 -0.77678,0.19102 -1.63632,0.28651 -2.57861,0.28651 -2.1393,0 -3.82651,-0.63669 -5.06171,-1.91007 -1.23517,-1.27338 -1.85276,-3.19619 -1.85276,-5.76843 0,-1.37523 0.18455,-2.56585 0.55392,-3.57184 0.36929,-1.00596 0.96141,-1.84638 1.77638,-2.5213 0.81494,-0.67486 1.87187,-1.18423 3.17071,-1.52805 1.29885,-0.3438 2.89057,-0.54117 4.7752,-0.59213 l 4.69876,-0.15281 0,-3.78195 c 0,-1.0187 -0.29287,-1.76362 -0.87861,-2.23479 -0.58578,-0.47112 -1.56628,-0.70672 -2.94153,-0.70674 -0.99325,2e-5 -2.13928,0.11462 -3.43813,0.34382 -1.29886,0.22923 -2.64865,0.61125 -4.04935,1.14605 l -1.06964,-2.7123 c 0.94229,-0.40746 1.92915,-0.80221 2.96061,-1.18426 1.03144,-0.38198 2.07561,-0.7258 3.13253,-1.03143 1.05689,-0.30558 2.12653,-0.54754 3.20892,-0.72582 1.08235,-0.17829 2.1711,-0.26739 3.26623,-0.26741 1.19696,2e-5 2.27295,0.10834 3.22802,0.32471 0.95502,0.21649 1.75725,0.57941 2.40669,1.08872 0.64941,0.50939 1.14603,1.1843 1.48986,2.02469 0.34378,0.84046 0.5157,1.88463 0.51572,3.13253 l 0,12.07167 c -2e-5,2.80143 0.71307,4.20218 2.13928,4.20216 z m -9.62678,-1.22244 c -0.0255,-0.10188 -0.0509,-0.38839 -0.0764,-0.85954 -0.0255,-0.47114 -0.0574,-1.06964 -0.0956,-1.79548 -0.0382,-0.72582 -0.07,-1.54715 -0.0954,-2.464 -0.0255,-0.91682 -0.0382,-1.88458 -0.0382,-2.9033 -1.91009,0 -3.36176,0.10834 -4.35499,0.32472 -0.99323,0.21649 -1.60446,0.47753 -1.83366,0.78312 -0.10188,0.12735 -0.19102,0.34382 -0.26741,0.64944 -0.0764,0.30561 -0.14009,0.64943 -0.19102,1.03143 -0.0509,0.38202 -0.0892,0.77676 -0.11462,1.18423 -0.0255,0.4075 -0.0382,0.77678 -0.0382,1.10785 0,1.17154 0.17182,2.13293 0.51572,2.88422 0.34381,0.75129 0.92319,1.12695 1.73817,1.12695 0.86588,0 1.69358,-0.10188 2.4831,-0.30564 0.78949,-0.20371 1.57897,-0.45839 2.36848,-0.764 z"
       style="font-size:100px;font-style:normal;font-variant:normal;font-weight:bold;font-stretch:normal;line-height:125%;letter-spacing:0px;word-spacing:0px;fill:#2aa22b;fill-opacity:1;stroke:none;font-family:Sakkal Majalla;-inkscape-font-specification:Sakkal Majalla Bold"
       id="path3865"
       inkscape:connector-curvature="0" />
    <path
       inkscape:connector-curvature="0"
       id="path3871"
       style="font-size:100px;font-style:normal;font-variant:normal;font-weight:bold;font-stretch:normal;line-height:125%;letter-spacing:0px;word-spacing:0px;fill:#2aa22b;fill-opacity:1;stroke:none;font-family:Sakkal Majalla;-inkscape-font-specification:Sakkal Majalla Bold"
       d="m 350.71613,532.72643 0,3.44369 -24.48753,0 -0.873,-3.44369 z" />
    <path
       style="font-size:100px;font-style:normal;font-variant:normal;font-weight:bold;font-stretch:normal;line-height:125%;letter-spacing:0px;word-spacing:0px;fill:#000000;fill-opacity:0.13297873;stroke:none;font-family:Sakkal Majalla;-inkscape-font-specification:Sakkal Majalla Bold"
       d="m 254.76613,528.21081 0,37.43134 7.97036,0 0,-15.13391 c 0.15282,-0.17828 0.36825,-0.42785 0.63568,-0.73346 0.26739,-0.3056 0.55008,-0.6214 0.85569,-0.97795 0.3056,-0.35655 0.60001,-0.69577 0.88017,-1.02687 0.28015,-0.33107 0.52971,-0.60306 0.73346,-0.80682 1.19697,2.41945 2.29463,4.56995 3.30061,6.45454 1.00597,1.8846 1.95641,3.52523 2.86054,4.93869 0.90409,1.41346 1.79901,2.61348 2.66493,3.594 0.86588,0.98049 1.75978,1.78476 2.68938,2.39599 0.92954,0.61123 1.92585,1.05283 2.98277,1.32024 1.05689,0.26741 2.2228,0.39117 3.49622,0.39117 1.17146,0 2.18916,-0.0566 3.08055,-0.17123 0.89133,-0.11461 1.77456,-0.28422 2.6405,-0.51343 l 0,-2.49379 -0.46454,0 c -1.52809,0 -3.02253,-0.50782 -4.47415,-1.56473 -1.4517,-1.05691 -2.88857,-2.53962 -4.32746,-4.44971 -1.43897,-1.91006 -2.89825,-4.19706 -4.40081,-6.84571 -1.13978,-2.00905 -2.35101,-4.20298 -3.56955,-6.50342 -1.95147,-1.12438 -3.77687,-2.3092 -5.50102,-3.52064 -0.43445,0.51744 -0.87125,1.05625 -1.29579,1.56472 -1.09513,1.3116 -2.02317,2.40928 -2.78718,3.30061 l 0,-7.97036 c -3.24826,-2.72786 -5.92981,-5.63794 -7.97036,-8.67937 z"
       id="path3050"
       inkscape:connector-curvature="0" />
    <path
       style="font-size:100px;font-style:normal;font-variant:normal;font-weight:bold;font-stretch:normal;line-height:125%;letter-spacing:0px;word-spacing:0px;fill:#000000;fill-opacity:0.13297873;stroke:none;font-family:Sakkal Majalla;-inkscape-font-specification:Sakkal Majalla Bold"
       d="m 293.22432,552.48861 0,13.15354 7.82368,0 0,-10.92868 c -2.68541,-0.68509 -5.29797,-1.42424 -7.82368,-2.22486 z"
       id="path3048"
       inkscape:connector-curvature="0" />
    <path
       style="font-size:100px;font-style:normal;font-variant:normal;font-weight:bold;font-stretch:normal;line-height:125%;letter-spacing:0px;word-spacing:0px;fill:#000000;fill-opacity:0.13297873;stroke:none;font-family:Sakkal Majalla;-inkscape-font-specification:Sakkal Majalla Bold"
       d="m 394.76082,553.63772 c -2.51086,0.71696 -5.09807,1.37382 -7.75032,1.98037 0.0249,0.83804 0.0623,1.59864 0.0978,2.27373 0.0382,0.72585 0.0723,1.33807 0.0978,1.80924 0.0255,0.47115 0.0478,0.75384 0.0733,0.85571 -0.78952,0.30562 -1.58207,0.55418 -2.37154,0.75792 -0.78952,0.20375 -1.62792,0.31782 -2.4938,0.31782 -0.81498,0 -1.39208,-0.37335 -1.73588,-1.12464 -0.34382,-0.75129 -0.51343,-1.71345 -0.51343,-2.88498 0,-0.17986 0.0137,-0.40422 0.0243,-0.61123 -2.68833,0.49542 -5.44056,0.94096 -8.23928,1.32026 -3.8e-4,0.0415 0,0.0803 0,0.12225 0,2.57224 0.62292,4.49658 1.85811,5.76996 1.23517,1.27337 2.92165,1.90701 5.06093,1.90701 0.94229,0 1.81481,-0.10227 2.59159,-0.29339 0.77675,-0.19102 1.50004,-0.43956 2.20041,-0.75791 0.70033,-0.31835 1.3681,-0.66826 2.00482,-1.07575 0.63668,-0.40749 1.29373,-0.8384 1.9559,-1.27136 0.17829,0.38202 0.40544,0.7671 0.66013,1.14911 0.25466,0.38202 0.55976,0.73297 0.92905,1.0513 0.36927,0.31835 0.81087,0.56691 1.32026,0.75793 0.50933,0.19102 1.12054,0.29339 1.83366,0.29339 0.66213,0 1.34162,-0.0672 2.02928,-0.22006 0.68759,-0.15281 1.34363,-0.36825 1.98035,-0.63566 0.63667,-0.26741 1.22445,-0.57251 1.78478,-0.92907 0.56025,-0.35653 1.05943,-0.74263 1.46692,-1.12465 l 0,-1.76031 c -1.12059,0.30561 -2.02623,0.46452 -2.71383,0.46452 -1.42621,0 -2.15152,-1.40378 -2.1515,-4.20523 l 0,-3.93626 z"
       id="path3046"
       inkscape:connector-curvature="0" />
    <path
       style="font-size:100px;font-style:normal;font-variant:normal;font-weight:bold;font-stretch:normal;line-height:125%;letter-spacing:0px;word-spacing:0px;fill:#000000;fill-opacity:0.13297873;stroke:none;font-family:Sakkal Majalla;-inkscape-font-specification:Sakkal Majalla Bold"
       d="m 310.75422,556.86497 0,8.77718 7.84813,0 0,-7.48139 c -2.66505,-0.38008 -5.2858,-0.80995 -7.84813,-1.29579 z"
       id="path3044"
       inkscape:connector-curvature="0" />
    <path
       style="font-size:100px;font-style:normal;font-variant:normal;font-weight:bold;font-stretch:normal;line-height:125%;letter-spacing:0px;word-spacing:0px;fill:#000000;fill-opacity:0.13297873;stroke:none;font-family:Sakkal Majalla;-inkscape-font-specification:Sakkal Majalla Bold"
       d="m 326.08371,559.08983 c 0.0157,0.0474 0.0319,0.0997 0.0488,0.14674 0.59849,1.64269 1.41346,2.96649 2.44489,3.98519 1.03144,1.01871 2.25387,1.76643 3.66733,2.22486 1.41346,0.45841 2.941,0.68456 4.59642,0.68456 1.40071,0 2.78309,-0.14615 4.10743,-0.46452 1.32429,-0.31835 2.58086,-0.74926 3.76513,-1.27136 1.18421,-0.52209 2.26915,-1.08747 3.30061,-1.71141 1.0314,-0.62397 1.97116,-1.24691 2.81163,-1.85812 l -0.26895,-0.80681 c -1.09119,0.0251 -2.20012,0.0176 -3.30059,0.0243 -0.0157,10e-5 -0.0325,-1.2e-4 -0.0488,0 -0.40808,0.12578 -0.82854,0.26818 -1.27136,0.39119 -0.91684,0.25466 -1.87902,0.48185 -2.88496,0.66011 -1.00599,0.17829 -1.96817,0.26894 -2.88499,0.26894 -1.12058,0 -2.10517,-0.18142 -2.95832,-0.53787 -0.63987,-0.26741 -1.19234,-0.6101 -1.66253,-1.02686 -3.20241,-0.16535 -6.36185,-0.39585 -9.46174,-0.70903 z"
       id="path3042"
       inkscape:connector-curvature="0" />
    <path
       style="font-size:100px;font-style:normal;font-variant:normal;font-weight:bold;font-stretch:normal;line-height:125%;letter-spacing:0px;word-spacing:0px;fill:#000000;fill-opacity:0.13297873;stroke:none;font-family:Sakkal Majalla;-inkscape-font-specification:Sakkal Majalla Bold"
       d="m 365.20204,559.13873 c -2.55947,0.25144 -5.16978,0.43553 -7.79923,0.58678 l 0,5.91664 7.82368,0 0,-6.50342 c -0.008,5.9e-4 -0.0157,-5.9e-4 -0.0245,0 z"
       id="path3987"
       inkscape:connector-curvature="0" />
  </g>
</svg>
